<svg width="24" height="24" viewBox="0 0 24 24" fill="none" xmlns="http://www.w3.org/2000/svg">
<path d="M4.8 6.6C5.79411 6.6 6.6 5.79411 6.6 4.8C6.6 3.80589 5.79411 3 4.8 3C3.80589 3 3 3.80589 3 4.8C3 5.79411 3.80589 6.6 4.8 6.6Z" stroke="#828282"/>
<path d="M4.8 13.8C5.79411 13.8 6.6 12.9941 6.6 12C6.6 11.0059 5.79411 10.2 4.8 10.2C3.80589 10.2 3 11.0059 3 12C3 12.9941 3.80589 13.8 4.8 13.8Z" stroke="#828282"/>
<path d="M4.8 21C5.79411 21 6.6 20.1941 6.6 19.2C6.6 18.2059 5.79411 17.4 4.8 17.4C3.80589 17.4 3 18.2059 3 19.2C3 20.1941 3.80589 21 4.8 21Z" stroke="#828282"/>
<path d="M10.1992 12H20.9992" stroke="#828282" stroke-linecap="round"/>
<path d="M10.1992 4.79999H20.9992" stroke="#828282" stroke-linecap="round"/>
<path d="M10.1992 19.2H20.9992" stroke="#828282" stroke-linecap="round"/>
</svg>
